<svg xmlns="http://www.w3.org/2000/svg" width="100" height="60" viewBox="0 0 100 60"><path d="M9.125,9.534a54.773,54.773,0,0,0,7.313-.6c-.063.777-.188,3.165-.188,7.7v2.03a7.774,7.774,0,0,1,4.938-2.09,5.218,5.218,0,0,1,4.5,2.209,9.038,9.038,0,0,1,1.25,4.836c0,5.552-2.75,8.716-8.313,8.716a10.884,10.884,0,0,1-4.375-1.015c-.75.239-1.75.716-2.75,1.015l-.313-.18c.063-1.612.063-4.657.063-8.776V15.743c0-1.91-.063-3.224-.125-4.358-.063-.777-.25-.9-2.125-.9Zm9.5,21.671c2.125,0,3.125-2.448,3.125-6.985a9.481,9.481,0,0,0-.875-4.418,2.267,2.267,0,0,0-2-1.194,2.9,2.9,0,0,0-2.313,1.313c-.312.418-.437.777-.437,5.492,0,3.881.188,4,.438,4.478A2.256,2.256,0,0,0,18.625,31.205Zm19.25.777c-1.313,0-2.625-.12-4.688-.12-2.187,0-3.25.12-4.312.12V30.966c1.75-.06,2-.358,2.063-1.015.062-.716.125-1.85.125-3.7V22.429c0-1.552,0-2.805-.063-3.343s-.313-.716-1.938-.656V17.414A66.483,66.483,0,0,0,36,16.758c-.063.777-.125,2.209-.125,5.492v4.12c0,1.91.063,2.746.125,3.582s.313.955,1.875,1.134ZM33.187,9.833A2.3,2.3,0,0,1,35.75,12.34a2.393,2.393,0,0,1-2.688,2.329,2.279,2.279,0,0,1-2.437-2.329,2.42,2.42,0,0,1,2.563-2.507Zm6.313-.3a48.187,48.187,0,0,0,6.813-.6q-.127,3.7-.126,7.4V23.8c1.188-.3,3.75-3.284,4.75-5.015.188-.358.188-.538-.312-.538l-1.375-.119V17.116c2.313.06,4.688-.06,7.063-.18v1.015c-1.75.18-2.438.3-3.126.836a28.551,28.551,0,0,0-3,2.985A86.556,86.556,0,0,0,55.25,30.25a1.773,1.773,0,0,0,1.563.716l.874.06-.062,1.014a48.477,48.477,0,0,0-6.938.358c-.75-1.672-3-5.731-3.687-6.985-.375-.656-.563-.9-.813-.836,0,2.448-.062,3.642.063,5.373.063.777.25,1.015,1.938,1.075v1.015c-1.188,0-2.438-.119-4.5-.119-2.438,0-3.5.119-4.438.119V31.026c1.625-.059,1.875-.357,1.938-.955.062-.716.124-2.269.124-5.373V17c0-2.448,0-4.3-.062-5.85q0-.537-.75-.538H39.437ZM24.438,46.727c-1.063,3.224-3.125,4.776-6.563,4.776-2.938,0-4.813-.777-6.125-2.448a8.349,8.349,0,0,1-1.5-5.193c0-4.6,2.938-8.119,8.313-8.119,3.25,0,5.625,1.433,5.625,3.762a2.309,2.309,0,0,1-2.5,2.268,2.943,2.943,0,0,1-1.25-.3A.915.915,0,0,1,20,40.4a8.616,8.616,0,0,0,.188-1.254c0-1.492-.563-2.208-1.75-2.208-1.938,0-2.938,2.687-2.938,6.388a9.5,9.5,0,0,0,.75,4.178,3.251,3.251,0,0,0,3.125,2.149c1.875,0,3.063-1.014,3.938-3.343ZM28,42.369a31.872,31.872,0,0,0-.188-4.18.65.65,0,0,0-.75-.6H25.937V36.578a27.533,27.533,0,0,0,6.25-.716l.188.119c.125.716.25,2.448.313,3.523h.124c.814-2.09,1.938-3.762,4.251-3.762a2.3,2.3,0,0,1,2.313,2.388A2.4,2.4,0,0,1,37.188,40.7c-.624,0-1.062-.18-1.25-.6-.312-.656-.5-1.014-1.124-1.014-.688,0-1.063.6-1.5,1.552A6.077,6.077,0,0,0,33,42.787c0,3.4,0,5.314.063,6.149s.374,1.074,2.874,1.134l-.062,1.015c-1.75-.06-3.313-.12-5.125-.12-1.875,0-3.25.06-4.813.12l.187-1.015c1.5-.06,1.875-.239,1.875-.836.063-.836.125-2.448.125-4.3V42.368H28Zm21.188-2.746c0-1.792-.626-2.747-1.876-2.747a1.923,1.923,0,0,0-2.124,2.209,6.377,6.377,0,0,0,.124,1.135.834.834,0,0,1-.374.9,3.527,3.527,0,0,1-1.75.538C42,41.653,41,41.114,41,39.8c0-1.91,2.938-4.06,7.063-4.06,3.374,0,4.874,1.313,5.437,2.149A2.9,2.9,0,0,1,54,39.5v8.775c0,1.015.313,1.254.688,1.254.5,0,1.062-.777,1.312-2.09l1.063.478a4.165,4.165,0,0,1-4.438,3.642c-1.938,0-3-.777-3.313-2.329a7.035,7.035,0,0,1-4.687,2.329,4.105,4.105,0,0,1-4.375-4.419,3.083,3.083,0,0,1,2.063-3.164c2.124-.9,5.312-1.791,6.874-2.866V39.622ZM45.25,46.249c0,1.313.563,2.746,1.938,2.746a1.855,1.855,0,0,0,1.75-1.194,4.249,4.249,0,0,0,.187-1.433v-4.06c-.688.418-1.75.9-2.563,1.374A2.619,2.619,0,0,0,45.25,46.249ZM57.625,36.28l2,.059v-.955c.063-2.507.688-4.359,2.063-5.672a6.326,6.326,0,0,1,4.562-1.791c2.563,0,3.938,1.194,3.938,2.746,0,1.135-1,1.91-2.376,1.91a1.155,1.155,0,0,1-1.25-1.194c0-1.253-.187-2.268-1.124-2.268-.626,0-1,.537-1.126,1.552A51.791,51.791,0,0,0,64.5,36.22h3.063l-.188,1.194-2.875.18c-.063,1.134-.063,3.1-.063,5.432,0,2.209,0,4.179.063,5.731.063.777.188,1.075.875,1.135.625.059,1.125.118,1.688.118l-.127,1.015c-1.187,0-3.062-.119-4.687-.119-1.688,0-3.688.119-4.813.119L57.5,50.01c1.625-.059,1.875-.239,1.938-.9a46.04,46.04,0,0,0,.124-4.657V37.533l-2.124-.119.187-1.135Z"/><path d="M79.063,37.563l-.126,1.187L75.125,39c0,1.313-.063,3.25-.063,5.875,0,2.75,0,4.625.126,5.75.062.813.374,1.188,1,1.188,1.312,0,2.124-1.438,2.437-2.75h.5l.438,1.437c-.75,1.813-2.626,3.063-5.376,3.063a4.575,4.575,0,0,1-3.437-1.25,3.443,3.443,0,0,1-.625-2.25c0-2.563.125-8.313.125-11.063l-2-.188.125-1.187H70.25c.063-1.188.063-2.563.063-3.813A17.273,17.273,0,0,0,75,32l.375.063q-.164,2.778-.188,5.562h3.876v-.063Z" transform="translate(0 -2)"/><path d="M95,4.839V55.161H5V4.839ZM100,0H0V60H100Z"/></svg>